<?xml version="1.0" encoding="UTF-8"?>
<svg width="7px" height="12px" viewBox="0 0 7 12" version="1.1" xmlns="http://www.w3.org/2000/svg" xmlns:xlink="http://www.w3.org/1999/xlink">
    <!-- Generator: sketchtool 50.2 (55047) - http://www.bohemiancoding.com/sketch -->
    <title>383370A0-25AC-413C-9524-CDA96B2A4855</title>
    <desc>Created with sketchtool.</desc>
    <defs>
        <path d="M7.82810634,6.37502056 L2.29686952,11.8125076 C2.20311975,11.9375075 2.07811981,12.0000072 1.92187042,12.0000072 C1.76562103,12.0000072 1.62499636,11.9375075 1.49999642,11.8125076 L1.17187221,11.4843834 C1.04687227,11.3906336 0.984372653,11.2656337 0.984372653,11.1093843 C0.984372653,10.9531349 1.04687227,10.8125102 1.17187221,10.6875103 L5.95311081,6.00002146 L1.17187221,1.31253263 C1.07812243,1.18753269 1.03124754,1.04690803 1.03124754,0.890658639 C1.03124754,0.73440925 1.07812243,0.60940931 1.17187221,0.515659533 L1.49999642,0.140660428 C1.62499636,0.046910651 1.76562103,3.57627869e-05 1.92187042,3.57627869e-05 C2.07811981,3.57627869e-05 2.20311975,0.046910651 2.29686952,0.140660428 L7.82810634,5.57814746 C7.92185611,5.7031474 7.968731,5.84377207 7.968731,6.00002146 C7.968731,6.15627085 7.92185611,6.29689551 7.82810634,6.42189545 L7.82810634,6.37502056 Z" id="path-1"></path>
    </defs>
    <g id="Components" stroke="none" stroke-width="1" fill="none" fill-rule="evenodd">
        <g id="Typography" transform="translate(-422.000000, -2058.000000)">
            <g id="Icons-/-Forward" transform="translate(414.000000, 2052.000000)">
                <rect id="Rectangle" x="0" y="0" width="24" height="24"></rect>
                <g id="-Colours-/-shades-/-Grey" stroke-width="1" fill-rule="evenodd" transform="translate(7.000000, 6.000000)">
                    <mask id="mask-2" fill="white">
                        <use xlink:href="#path-1"></use>
                    </mask>
                    <use id="Mask" fill="#ACACAC" xlink:href="#path-1"></use>
                    <g id="-Colours-/-shades-/-68" mask="url(#mask-2)" fill="#ACACAC">
                        <g transform="translate(-7.000000, -6.000000)" id="Rectangle-2-Copy-5">
                            <rect x="0" y="0" width="24" height="24" rx="4"></rect>
                        </g>
                    </g>
                </g>
            </g>
        </g>
    </g>
</svg>