<?xml version="1.0" encoding="UTF-8"?>
<svg width="22px" height="22px" viewBox="0 0 22 22" version="1.1" xmlns="http://www.w3.org/2000/svg" xmlns:xlink="http://www.w3.org/1999/xlink">
    <!-- Generator: sketchtool 50.2 (55047) - http://www.bohemiancoding.com/sketch -->
    <title>36AFE4C0-D170-4554-B03C-1AD25B49AF68</title>
    <desc>Created with sketchtool.</desc>
    <defs>
        <path d="M5.36219552,19.1749278 C5.60212708,19.0727305 5.83321058,18.9295969 6.05674593,18.7430552 C6.3149458,18.5275858 6.67330774,18.4779521 6.98035042,18.6151347 C8.0992692,19.1150525 9.31497142,19.3768275 10.5691786,19.3768275 C15.4335042,19.3768275 19.3768275,15.4335042 19.3768275,10.5691786 C19.3768275,5.70485303 15.4335042,1.76152977 10.5691786,1.76152977 C5.70485303,1.76152977 1.76152977,5.70485303 1.76152977,10.5691786 C1.76152977,12.7227226 2.53605553,14.7539636 3.92012173,16.345618 C3.97953011,16.4139367 4.0280497,16.4910068 4.06397056,16.5741121 C4.45114918,17.4698757 4.59386955,18.2979662 4.46640062,19.0559335 C4.44283056,19.1960879 4.41403539,19.331474 4.37999781,19.461886 C4.78574652,19.3768963 5.11391964,19.2806792 5.36219552,19.1749278 Z M6.05249595,20.7955673 C5.27611853,21.12626 4.12642204,21.3497383 2.57539017,21.4864323 C1.58899396,21.5733643 1.23185674,20.2179255 2.13302122,19.8075145 C2.42689175,19.673679 2.62867888,19.3619058 2.72926428,18.7637957 C2.79027016,18.4010371 2.71970482,17.944305 2.49660261,17.3916033 C0.895446188,15.4990396 0,13.1023278 0,10.5691786 C0,4.731987 4.731987,0 10.5691786,0 C16.4063703,0 21.1383573,4.731987 21.1383573,10.5691786 C21.1383573,16.4063703 16.4063703,21.1383573 10.5691786,21.1383573 C9.24379569,21.1383573 7.95155666,20.8938363 6.74311463,20.4243316 C6.52136089,20.5700328 6.29106375,20.6939509 6.05249595,20.7955673 Z" id="path-1"></path>
    </defs>
    <g id="Components" stroke="none" stroke-width="1" fill="none" fill-rule="evenodd">
        <g id="Typography" transform="translate(-469.000000, -2053.000000)">
            <g id="Icons-/-Message" transform="translate(468.000000, 2052.000000)">
                <rect id="Rectangle" x="0" y="0" width="24" height="24"></rect>
                <g id="Icon" stroke-width="1" fill-rule="evenodd" transform="translate(1.000000, 1.000000)">
                    <mask id="mask-2" fill="white">
                        <use xlink:href="#path-1"></use>
                    </mask>
                    <use id="Mask" fill="#A5A5A5" fill-rule="nonzero" xlink:href="#path-1"></use>
                    <g id="-Colours-/-shades-/-68" mask="url(#mask-2)" fill="#ACACAC">
                        <g transform="translate(-1.000000, -1.000000)" id="Rectangle-2-Copy-5">
                            <rect x="0" y="0" width="24" height="24" rx="4"></rect>
                        </g>
                    </g>
                </g>
            </g>
        </g>
    </g>
</svg>