<?xml version="1.0" encoding="UTF-8"?>
<svg width="17px" height="18px" viewBox="0 0 17 18" version="1.1" xmlns="http://www.w3.org/2000/svg" xmlns:xlink="http://www.w3.org/1999/xlink">
    <!-- Generator: sketchtool 50.2 (55047) - http://www.bohemiancoding.com/sketch -->
    <title>CB5F22DF-9C42-4A19-A53F-D29D595CED95</title>
    <desc>Created with sketchtool.</desc>
    <defs>
        <path d="M14.9905893,9.94919503 L16.4671483,10.8280992 C16.5608983,10.8749739 16.6253511,10.9452862 16.6605072,11.0390362 C16.6956634,11.1327861 16.7015229,11.2265356 16.6780853,11.3202855 C16.2796489,12.5624699 15.6351189,13.6640301 14.7444962,14.6249651 C14.6741838,14.6952775 14.592153,14.7421522 14.498403,14.7655898 C14.4046531,14.7890274 14.3109036,14.7773083 14.2171537,14.7304336 L12.7405947,13.8515295 C12.1077837,14.3905905 11.3929418,14.800746 10.5960686,15.0819953 L10.5960686,16.8046474 C10.5960686,16.8983974 10.5667719,16.9862878 10.5081781,17.0683187 C10.4495844,17.1503496 10.373413,17.2030838 10.2796631,17.2265214 C8.99060346,17.5077708 7.70154439,17.5077708 6.41248479,17.2265214 C6.31873483,17.2030838 6.2425635,17.1503496 6.18396971,17.0683187 C6.12537592,16.9862878 6.09607929,16.8983974 6.09607929,16.8046474 L6.09607929,15.0819953 C5.29920601,14.800746 4.58436415,14.3905905 3.95155316,13.8515295 L2.47499418,14.7304336 C2.38124422,14.7773083 2.2874948,14.7890274 2.19374485,14.7655898 C2.09999489,14.7421522 2.01796402,14.6952775 1.94765168,14.6249651 C1.05702899,13.6640301 0.412498915,12.5624699 0.0140625437,11.3202855 C-0.00937507921,11.2265356 -0.00351553937,11.1327861 0.0316406268,11.0390362 C0.066796793,10.9452862 0.131249586,10.8749739 0.224999541,10.8280992 L1.70155852,9.94919503 C1.56093386,9.12888466 1.56093386,8.30857376 1.70155852,7.4882634 L0.224999541,6.60935924 C0.131249586,6.56248453 0.066796793,6.4921722 0.0316406268,6.39842224 C-0.00351553937,6.30467229 -0.00937507921,6.21092287 0.0140625437,6.11717292 C0.412498915,4.87498856 1.05702899,3.77342832 1.94765168,2.81249329 C2.01796402,2.74218096 2.09999489,2.69530625 2.19374485,2.67186863 C2.2874948,2.64843101 2.38124422,2.66015009 2.47499418,2.7070248 L3.95155316,3.58592895 C4.58436415,3.04686791 5.29920601,2.63671246 6.09607929,2.35546313 L6.09607929,0.632810991 C6.09607929,0.539061036 6.12537592,0.451170621 6.18396971,0.369139745 C6.2425635,0.287108869 6.31873483,0.23437462 6.41248479,0.210936997 C7.70154439,-0.0703123324 8.99060346,-0.0703123324 10.2796631,0.210936997 C10.373413,0.23437462 10.4495844,0.287108869 10.5081781,0.369139745 C10.5667719,0.451170621 10.5960686,0.539061036 10.5960686,0.632810991 L10.5960686,2.35546313 C11.3929418,2.63671246 12.1077837,3.04686791 12.7405947,3.58592895 L14.2171537,2.7070248 C14.3109036,2.66015009 14.4046531,2.64843101 14.498403,2.67186863 C14.592153,2.69530625 14.6741838,2.74218096 14.7444962,2.81249329 C15.6351189,3.77342832 16.2796489,4.87498856 16.6780853,6.11717292 C16.7015229,6.21092287 16.6956634,6.30467229 16.6605072,6.39842224 C16.6253511,6.4921722 16.5608983,6.56248453 16.4671483,6.60935924 L14.9905893,7.4882634 C15.131214,8.30857376 15.131214,9.12888466 14.9905893,9.94919503 Z M11.1585672,8.71872921 C11.1585672,7.94529356 10.8831774,7.28318594 10.3323973,6.73240582 C9.7816172,6.18162571 9.11950958,5.90623592 8.34607393,5.90623592 C7.57263827,5.90623592 6.91053066,6.18162571 6.35975054,6.73240582 C5.80897042,7.28318594 5.53358063,7.94529356 5.53358063,8.71872921 C5.53358063,9.49216487 5.80897042,10.1542725 6.35975054,10.7050526 C6.91053066,11.2558327 7.57263827,11.5312225 8.34607393,11.5312225 C9.11950958,11.5312225 9.7816172,11.2558327 10.3323973,10.7050526 C10.8831774,10.1542725 11.1585672,9.49216487 11.1585672,8.71872921 Z" id="path-1"></path>
    </defs>
    <g id="Components" stroke="none" stroke-width="1" fill="none" fill-rule="evenodd">
        <g id="Typography" transform="translate(-634.000000, -2055.000000)">
            <g id="Icons-/-Settings" transform="translate(630.000000, 2052.000000)">
                <g id="baseline-directions-24px">
                    <polygon id="Shape" points="0 0 24 0 24 24 0 24"></polygon>
                </g>
                <g id="-Colours-/-shades-/-Grey" transform="translate(4.000000, 3.000000)">
                    <mask id="mask-2" fill="white">
                        <use xlink:href="#path-1"></use>
                    </mask>
                    <use id="Mask" fill="#333366" xlink:href="#path-1"></use>
                    <g id="-Colours-/-shades-/-68" mask="url(#mask-2)" fill="#ACACAC">
                        <g transform="translate(-3.000000, -3.000000)" id="Rectangle-2-Copy-5">
                            <rect x="0" y="0" width="24" height="24" rx="4"></rect>
                        </g>
                    </g>
                </g>
            </g>
        </g>
    </g>
</svg>