<?xml version="1.0" encoding="UTF-8"?>
<svg width="16px" height="19px" viewBox="0 0 16 19" version="1.1" xmlns="http://www.w3.org/2000/svg" xmlns:xlink="http://www.w3.org/1999/xlink">
    <!-- Generator: sketchtool 50.2 (55047) - http://www.bohemiancoding.com/sketch -->
    <title>06DF828D-FF6C-41D1-ACF0-733AA6AC2153</title>
    <desc>Created with sketchtool.</desc>
    <defs>
        <path d="M15.2577761,2.57034452 C15.5859002,2.89846856 15.7499624,3.29690547 15.7499624,3.76565417 L15.7499624,13.1875067 C15.7499624,13.6562554 15.5859002,14.0546923 15.2577761,14.3828164 C14.9296521,14.7109404 14.5312152,14.8750027 14.0624665,14.8750027 L11.2499732,14.8750027 L11.2499732,16.5624987 C11.2499732,17.0312474 11.0859109,17.4296843 10.7577869,17.7578083 C10.4296628,18.0859323 10.0312259,18.2499946 9.5624772,18.2499946 L1.68749598,18.2499946 C1.21874727,18.2499946 0.820310365,18.0859323 0.492186327,17.7578083 C0.164062288,17.4296843 0,17.0312474 0,16.5624987 L0,5.31252548 C0,4.84377678 0.164062288,4.44533987 0.492186327,4.11721583 C0.820310365,3.78909179 1.21874727,3.6250295 1.68749598,3.6250295 L4.49998927,3.6250295 L4.49998927,1.93753353 C4.49998927,1.46878482 4.66405156,1.07034792 4.9921756,0.742223877 C5.32029964,0.414099839 5.71873654,0.250037551 6.18748525,0.250037551 L12.2343458,0.250037551 C12.7030945,0.250037551 13.1015314,0.414099839 13.4296555,0.742223877 L15.2577761,2.57034452 Z M9.3515402,16.5624987 C9.39841491,16.5624987 9.44529016,16.539061 9.49216487,16.4921863 C9.53903958,16.4453116 9.5624772,16.3984364 9.5624772,16.3515617 L9.5624772,14.8750027 L6.18748525,14.8750027 C5.71873654,14.8750027 5.32029964,14.7109404 4.9921756,14.3828164 C4.66405156,14.0546923 4.49998927,13.6562554 4.49998927,13.1875067 L4.49998927,5.31252548 L1.89843297,5.31252548 C1.85155826,5.31252548 1.80468302,5.3359631 1.75780831,5.38283781 C1.7109336,5.42971252 1.68749598,5.47658777 1.68749598,5.52346248 L1.68749598,16.3515617 C1.68749598,16.3984364 1.7109336,16.4453116 1.75780831,16.4921863 C1.80468302,16.539061 1.85155826,16.5624987 1.89843297,16.5624987 L9.3515402,16.5624987 Z M13.8515295,13.1875067 C13.8984042,13.1875067 13.9452794,13.1640691 13.9921541,13.1171944 C14.0390288,13.0703197 14.0624665,13.0234444 14.0624665,12.9765697 L14.0624665,5.87502414 L10.9687238,5.87502414 C10.7343492,5.87502414 10.5351313,5.79299326 10.371069,5.62893098 C10.2070067,5.46486869 10.1249759,5.26565077 10.1249759,5.03127615 L10.1249759,1.93753353 L6.39842224,1.93753353 C6.35154754,1.93753353 6.30467229,1.96097115 6.25779758,2.00784586 C6.21092287,2.05472057 6.18748525,2.10159582 6.18748525,2.14847052 L6.18748525,12.9765697 C6.18748525,13.0234444 6.21092287,13.0703197 6.25779758,13.1171944 C6.30467229,13.1640691 6.35154754,13.1875067 6.39842224,13.1875067 L13.8515295,13.1875067 Z M14.0624665,4.18752816 L14.0624665,3.8359665 C14.0624665,3.78909179 14.0390288,3.74221655 13.9921541,3.69534184 L12.3046582,2.00784586 C12.2577835,1.96097115 12.2109082,1.93753353 12.1640335,1.93753353 L11.8124718,1.93753353 L11.8124718,4.18752816 L14.0624665,4.18752816 Z" id="path-1"></path>
    </defs>
    <g id="Components" stroke="none" stroke-width="1" fill="none" fill-rule="evenodd">
        <g id="Typography" transform="translate(-202.000000, -2103.000000)">
            <g id="Icons-/-Copy" transform="translate(198.000000, 2100.000000)">
                <rect id="Rectangle" x="0" y="0" width="24" height="24"></rect>
                <g id="-Colours-/-shades-/-Grey" stroke-width="1" fill-rule="evenodd" transform="translate(4.000000, 3.000000)">
                    <mask id="mask-2" fill="white">
                        <use xlink:href="#path-1"></use>
                    </mask>
                    <use id="Mask" fill="#5A4DB2" xlink:href="#path-1"></use>
                    <g id="-Colours-/-shades-/-68" mask="url(#mask-2)" fill="#ACACAC">
                        <g transform="translate(-4.000000, -3.000000)" id="Rectangle-2-Copy-5">
                            <rect x="0" y="0" width="24" height="24" rx="4"></rect>
                        </g>
                    </g>
                </g>
            </g>
        </g>
    </g>
</svg>