<?xml version="1.0" encoding="UTF-8"?>
<svg width="15px" height="18px" viewBox="0 0 15 18" version="1.1" xmlns="http://www.w3.org/2000/svg" xmlns:xlink="http://www.w3.org/1999/xlink">
    <!-- Generator: sketchtool 50.2 (55047) - http://www.bohemiancoding.com/sketch -->
    <title>C4565386-AEF5-4823-98E7-11AE0C878AE8</title>
    <desc>Created with sketchtool.</desc>
    <defs>
        <path d="M7.31248257,0.527342627 C7.68748185,2.75389964 7.87498122,4.26561479 7.87498122,5.06248806 C7.87498122,5.95311076 7.65818469,6.72068741 7.22459215,7.36521695 C6.79099961,8.00974648 6.19920379,8.47263618 5.44920576,8.75388551 L5.90623592,17.1210531 C5.92967354,17.3554277 5.85350167,17.5605051 5.67772084,17.736286 C5.50194001,17.9120668 5.29686255,17.9999572 5.06248793,17.9999572 L2.81249329,17.9999572 C2.57811867,17.9999572 2.37304122,17.9120668 2.19726039,17.736286 C2.02147956,17.5605051 1.94530768,17.3554277 1.96874531,17.1210531 L2.42577547,8.75388551 C1.67577743,8.47263618 1.08398161,8.00974648 0.650389074,7.36521695 C0.216796537,6.72068741 0,5.95311076 0,5.06248806 C0,4.26561479 0.187499374,2.75389964 0.562498659,0.527342627 C0.609373368,0.31640563 0.761717113,0.164062422 1.01952882,0.0703124665 C1.27734053,-0.0234374888 1.54101177,-0.0234374888 1.81054256,0.0703124665 C2.08007334,0.164062422 2.22655701,0.328124173 2.24999464,0.562498793 L2.24999464,5.51951822 C2.27343226,5.58983056 2.36718168,5.62498672 2.53124397,5.62498672 C2.69530625,5.62498672 2.78905567,5.6015491 2.81249329,5.55467439 L3.09374262,0.562498793 C3.14061733,0.328124173 3.29296108,0.164062422 3.55077278,0.0703124665 C3.80858449,-0.0234374888 4.06639673,-0.0234374888 4.32420844,0.0703124665 C4.58202015,0.164062422 4.73436389,0.328124173 4.7812386,0.562498793 L5.06248793,5.55467439 C5.08592555,5.6015491 5.17967497,5.62498672 5.34373726,5.62498672 C5.50779955,5.62498672 5.60154897,5.58983056 5.62498659,5.51951822 L5.62498659,0.562498793 C5.64842421,0.328124173 5.79490788,0.164062422 6.06443867,0.0703124665 C6.33396945,-0.0234374888 6.5976407,-0.0234374888 6.85545241,0.0703124665 C7.11326411,0.164062422 7.26560786,0.31640563 7.31248257,0.527342627 Z M11.4960663,10.5820062 C10.2070067,9.57419588 9.42185254,8.41404239 9.14060321,7.1015457 C8.8827915,5.97654838 8.99997854,4.83983252 9.49216487,3.69139758 C9.93747649,2.6367126 10.5761465,1.75780844 11.4081759,1.05468512 C12.2402054,0.351561796 13.0312191,1.34110131e-07 13.7812171,1.34110131e-07 C14.0155918,1.34110131e-07 14.2148097,0.0820310097 14.378872,0.246093297 C14.5429343,0.410155585 14.6249651,0.609373502 14.6249651,0.843748122 L14.6249651,17.1562092 C14.6249651,17.3905839 14.5429343,17.5898018 14.378872,17.7538641 C14.2148097,17.9179263 14.0155918,17.9999572 13.7812171,17.9999572 L11.8124718,17.9999572 C11.5546601,17.9999572 11.3437231,17.9062073 11.1796608,17.7187079 C11.0155986,17.5312085 10.9452862,17.3202715 10.9687238,17.0858969 L11.4960663,10.5820062 Z" id="path-1"></path>
    </defs>
    <g id="Components" stroke="none" stroke-width="1" fill="none" fill-rule="evenodd">
        <g id="Typography" transform="translate(-797.000000, -2055.000000)">
            <g id="Icons-/-Cuisine" transform="translate(792.000000, 2052.000000)">
                <g id="-Colours-/-shades-/-Grey" transform="translate(5.000000, 3.000000)">
                    <mask id="mask-2" fill="white">
                        <use xlink:href="#path-1"></use>
                    </mask>
                    <use id="Mask" fill="#333366" xlink:href="#path-1"></use>
                    <g id="-Colours-/-shades-/-68" mask="url(#mask-2)" fill="#ACACAC">
                        <g transform="translate(-5.000000, -3.000000)" id="Rectangle-2-Copy-5">
                            <rect x="0" y="0" width="24" height="24" rx="4"></rect>
                        </g>
                    </g>
                </g>
                <g id="-Colours-/-shades-/-Grey"></g>
            </g>
        </g>
    </g>
</svg>