<?xml version="1.0" encoding="UTF-8"?>
<svg width="20px" height="20px" viewBox="0 0 20 20" version="1.1" xmlns="http://www.w3.org/2000/svg" xmlns:xlink="http://www.w3.org/1999/xlink">
    <!-- Generator: sketchtool 50.2 (55047) - http://www.bohemiancoding.com/sketch -->
    <title>B4469024-6757-42E2-9857-FAE8FD126044</title>
    <desc>Created with sketchtool.</desc>
    <defs>
        <path d="M19.71,10.29 L10.71,1.29 C10.32,0.9 9.69,0.9 9.3,1.29 L0.3,10.29 C-0.09,10.68 -0.09,11.31 0.3,11.7 L9.3,20.7 C9.69,21.09 10.32,21.09 10.71,20.7 L19.71,11.7 C20.1,11.32 20.1,10.69 19.71,10.29 Z M12,13.5 L12,11 L8,11 L8,14 L6,14 L6,10 C6,9.45 6.45,9 7,9 L12,9 L12,6.5 L15.5,10 L12,13.5 Z" id="path-1"></path>
    </defs>
    <g id="Components" stroke="none" stroke-width="1" fill="none" fill-rule="evenodd">
        <g id="Typography" transform="translate(-309.000000, -2054.000000)">
            <g id="Icons-/-Directions" transform="translate(307.000000, 2052.000000)">
                <g id="baseline-directions-24px">
                    <polygon id="Shape" points="0 0 24 0 24 24 0 24"></polygon>
                    <g id="-Colours-/-shades-/-Grey" transform="translate(2.000000, 1.000000)">
                        <mask id="mask-2" fill="white">
                            <use xlink:href="#path-1"></use>
                        </mask>
                        <use id="Mask" fill="#000000" fill-rule="nonzero" xlink:href="#path-1"></use>
                        <g id="-Colours-/-shades-/-68" mask="url(#mask-2)" fill="#ACACAC">
                            <g transform="translate(-2.000000, -1.000000)" id="Rectangle-2-Copy-5">
                                <rect x="0" y="0" width="24" height="24" rx="4"></rect>
                            </g>
                        </g>
                    </g>
                </g>
            </g>
        </g>
    </g>
</svg>