<?xml version="1.0" encoding="UTF-8"?>
<svg width="18px" height="16px" viewBox="0 0 18 16" version="1.1" xmlns="http://www.w3.org/2000/svg" xmlns:xlink="http://www.w3.org/1999/xlink">
    <!-- Generator: sketchtool 50.2 (55047) - http://www.bohemiancoding.com/sketch -->
    <title>D2B5B634-DECF-40A0-8247-64443F45332A</title>
    <desc>Created with sketchtool.</desc>
    <defs>
        <path d="M12.5625,10.78125 L13.5625,9.78125 C13.6458335,9.69791651 13.7395835,9.67708349 13.84375,9.71875 C13.9479165,9.76041651 14,9.84375 14,9.96875 L14,14.5 C14,14.9166665 13.8541665,15.2708335 13.5625,15.5625 C13.2708335,15.8541665 12.9166665,16 12.5,16 L1.5,16 C1.08333349,16 0.729166508,15.8541665 0.4375,15.5625 C0.145833492,15.2708335 0,14.9166665 0,14.5 L0,3.5 C0,3.08333349 0.145833492,2.72916651 0.4375,2.4375 C0.729166508,2.14583349 1.08333349,2 1.5,2 L10.0625,2 C10.1666665,2 10.2395835,2.05208349 10.28125,2.15625 C10.3229165,2.26041651 10.3020835,2.35416651 10.21875,2.4375 L9.21875,3.4375 C9.17708349,3.47916651 9.125,3.5 9.0625,3.5 L1.5,3.5 L1.5,14.5 L12.5,14.5 L12.5,10.9375 C12.5,10.875 12.5208335,10.8229165 12.5625,10.78125 Z M17.46875,4.46875 L9.25,12.6875 L6.4375,13 C6.02083349,13.0416665 5.66666651,12.9166665 5.375,12.625 C5.08333349,12.3333335 4.95833349,11.9791665 5,11.5625 L5.3125,8.75 L13.53125,0.53125 C13.8854165,0.177083492 14.3177085,0 14.828125,0 C15.3385415,0 15.7708335,0.177083492 16.125,0.53125 L17.46875,1.875 C17.8229165,2.22916651 18,2.66145849 18,3.171875 C18,3.68229151 17.8229165,4.11458349 17.46875,4.46875 Z M14.375,5.4375 L12.5625,3.625 L6.75,9.4375 L6.53125,11.46875 L8.5625,11.25 L14.375,5.4375 Z M16.40625,2.9375 L15.0625,1.59375 C15,1.53125 14.921875,1.5 14.828125,1.5 C14.734375,1.5 14.65625,1.53125 14.59375,1.59375 L13.625,2.5625 L15.4375,4.375 L16.40625,3.40625 C16.46875,3.34375 16.5,3.265625 16.5,3.171875 C16.5,3.078125 16.46875,3 16.40625,2.9375 Z" id="path-1"></path>
    </defs>
    <g id="Components" stroke="none" stroke-width="1" fill="none" fill-rule="evenodd">
        <g id="Typography" transform="translate(-364.000000, -2056.000000)">
            <g id="Icons-/-Edit" transform="translate(361.000000, 2052.000000)">
                <g id="baseline-directions-24px">
                    <polygon id="Shape" points="0 0 24 0 24 24 0 24"></polygon>
                </g>
                <g id="-Colours-/-shades-/-Grey" transform="translate(3.000000, 4.000000)">
                    <mask id="mask-2" fill="white">
                        <use xlink:href="#path-1"></use>
                    </mask>
                    <use id="Mask" fill="#333366" xlink:href="#path-1"></use>
                    <g id="-Colours-/-shades-/-68" mask="url(#mask-2)" fill="#ACACAC">
                        <g transform="translate(-3.000000, -4.000000)" id="Rectangle-2-Copy-5">
                            <rect x="0" y="0" width="22" height="21" rx="4"></rect>
                        </g>
                    </g>
                </g>
            </g>
        </g>
    </g>
</svg>