<?xml version="1.0" encoding="UTF-8"?>
<svg width="18px" height="17px" viewBox="0 0 18 17" version="1.1" xmlns="http://www.w3.org/2000/svg" xmlns:xlink="http://www.w3.org/1999/xlink">
    <!-- Generator: sketchtool 50.2 (55047) - http://www.bohemiancoding.com/sketch -->
    <title>711CDFF6-6856-4DD2-9C8D-CEF5EF3EAD32</title>
    <desc>Created with sketchtool.</desc>
    <defs>
        <path d="M9,3.825 C11.2581818,3.825 13.0909091,5.729 13.0909091,8.075 C13.0909091,8.5085 13.0090909,8.925 12.8945455,9.316 L15.3981818,11.917 C16.5354545,10.8715 17.4354545,9.5625 18,8.0665 C16.5845455,4.3435 13.0909091,1.7 9,1.7 C7.96090909,1.7 6.96272727,1.87 6.02181818,2.1845 L7.79727273,4.029 C8.18181818,3.91 8.58272727,3.825 9,3.825 Z M1.39909091,0.986 C1.08,1.3175 1.08,1.853 1.39909091,2.1845 L3.01090909,3.859 C1.68545455,4.9555 0.63,6.4005 0,8.075 C1.41545455,11.8065 4.90909091,14.45 9,14.45 C10.2436364,14.45 11.43,14.195 12.5263636,13.753 L14.7518182,16.065 C15.0709091,16.3965 15.5863636,16.3965 15.9054545,16.065 C16.2245455,15.7335 16.2245455,15.198 15.9054545,14.8665 L2.56090909,0.986 C2.24181818,0.6545 1.71818182,0.6545 1.39909091,0.986 Z M9,12.325 C6.74181818,12.325 4.90909091,10.421 4.90909091,8.075 C4.90909091,7.4205 5.05636364,6.8 5.31,6.256 L6.59454545,7.5905 C6.57,7.7435 6.54545455,7.905 6.54545455,8.075 C6.54545455,9.486 7.64181818,10.625 9,10.625 C9.16363636,10.625 9.31090909,10.5995 9.46636364,10.5655 L10.7509091,11.9 C10.2190909,12.172 9.63,12.325 9,12.325 Z M11.43,7.7945 C11.3072727,6.6045 10.4072727,5.678 9.27,5.5505 L11.43,7.7945 Z" id="path-1"></path>
    </defs>
    <g id="Components" stroke="none" stroke-width="1" fill="none" fill-rule="evenodd">
        <g id="Typography" transform="translate(-310.000000, -2104.000000)">
            <g id="Icons-/-Not-Visible" transform="translate(307.000000, 2100.000000)">
                <rect id="Rectangle" x="0" y="0" width="24" height="24"></rect>
                <g id="round-visibility_off-24px" stroke-width="1" fill-rule="evenodd" transform="translate(2.000000, 2.000000)">
                    <g id="Bounding_Boxes">
                        <path d="M0,0 L20,0 L20,20 L0,20 L0,0 Z M0,0 L20,0 L20,20 L0,20 L0,0 Z M0,0 L20,0 L20,20 L0,20 L0,0 Z M0,0 L20,0 L20,20 L0,20 L0,0 Z" id="Shape"></path>
                    </g>
                    <g id="Rounded" transform="translate(1.000000, 2.000000)">
                        <g id="-Colours-/-shades-/-Grey">
                            <mask id="mask-2" fill="white">
                                <use xlink:href="#path-1"></use>
                            </mask>
                            <use id="Mask" fill="#000000" fill-rule="nonzero" xlink:href="#path-1"></use>
                            <g id="-Colours-/-shades-/-68" mask="url(#mask-2)" fill="#ACACAC">
                                <g transform="translate(-3.000000, -4.000000)" id="Rectangle-2-Copy-5">
                                    <rect x="0" y="0" width="24" height="24" rx="4"></rect>
                                </g>
                            </g>
                        </g>
                    </g>
                </g>
            </g>
        </g>
    </g>
</svg>