<?xml version="1.0" encoding="UTF-8"?>
<svg width="18px" height="16px" viewBox="0 0 18 16" version="1.1" xmlns="http://www.w3.org/2000/svg" xmlns:xlink="http://www.w3.org/1999/xlink">
    <!-- Generator: sketchtool 50.2 (55047) - http://www.bohemiancoding.com/sketch -->
    <title>5C7F30BF-0D1C-4E19-BA57-C518886C5204</title>
    <desc>Created with sketchtool.</desc>
    <defs>
        <path d="M16.2430063,1.09397713 C16.9695673,1.7033505 17.4734721,2.45334907 17.7547215,3.34397176 C18.0359708,4.23459446 18.0769865,5.1310767 17.877768,6.03341848 C17.6785496,6.93576025 17.2508166,7.71505491 16.594568,8.37130353 L9.80942791,15.4025368 C9.57505329,15.6369114 9.30552304,15.7540984 9.00083609,15.7540984 C8.69614913,15.7540984 8.42661888,15.6369114 8.19224426,15.4025368 L1.40710419,8.40645969 C0.750855577,7.72677399 0.323122579,6.93576025 0.123904125,6.03341848 C-0.0753143285,5.1310767 -0.0342986225,4.23459446 0.246950707,3.34397176 C0.528200036,2.45334907 1.03210491,1.7033505 1.75866585,1.09397713 C2.39147684,0.554916092 3.10631871,0.215072973 3.90319199,0.0744483087 C4.70006527,-0.066176356 5.48521947,-0.00758256693 6.25865512,0.25022914 C7.03209078,0.508040846 7.71177648,0.94163392 8.29771276,1.55100729 L9.00083609,2.25413061 L9.70395941,1.55100729 C10.2898957,0.94163392 10.9695814,0.508040846 11.743017,0.25022914 C12.5164527,-0.00758256693 13.3016069,-0.066176356 14.0984802,0.0744483087 C14.8953535,0.215072973 15.6101953,0.554916092 16.2430063,1.09397713 Z" id="path-1"></path>
    </defs>
    <g id="Components" stroke="none" stroke-width="1" fill="none" fill-rule="evenodd">
        <g id="Typography" transform="translate(-903.000000, -2056.000000)">
            <g id="Icons-/-Heart" transform="translate(900.000000, 2052.000000)">
                <g id="-Colours-/-shades-/-Grey"></g>
                <g id="-Colours-/-shades-/-Grey" transform="translate(3.000000, 4.000000)">
                    <mask id="mask-2" fill="white">
                        <use xlink:href="#path-1"></use>
                    </mask>
                    <use id="Mask" fill="#B6486D" xlink:href="#path-1"></use>
                    <g id="-Colours-/-shades-/-68" mask="url(#mask-2)" fill="#ACACAC">
                        <g transform="translate(-3.000000, -4.000000)" id="Rectangle-2-Copy-5">
                            <rect x="0" y="0" width="24" height="24" rx="4"></rect>
                        </g>
                    </g>
                </g>
            </g>
        </g>
    </g>
</svg>