<?xml version="1.0" encoding="UTF-8"?>
<svg width="16px" height="16px" viewBox="0 0 16 16" version="1.1" xmlns="http://www.w3.org/2000/svg" xmlns:xlink="http://www.w3.org/1999/xlink">
    <!-- Generator: sketchtool 50.2 (55047) - http://www.bohemiancoding.com/sketch -->
    <title>3E17CFE1-32B4-4522-B124-5588EED23B0D</title>
    <desc>Created with sketchtool.</desc>
    <defs>
        <path d="M15.9062121,14.6562151 C15.9687119,14.7187149 15.9999619,14.8020482 15.9999619,14.9062145 C15.9999619,15.0103807 15.9687119,15.1041305 15.9062121,15.1874638 L15.1874638,15.8749622 C15.1041305,15.9582954 15.0103807,15.9999619 14.9062145,15.9999619 C14.8020482,15.9999619 14.7187149,15.9582954 14.6562151,15.8749622 L10.8437241,12.0937212 C10.7812243,12.0103879 10.7499744,11.9270551 10.7499744,11.8437218 L10.7499744,11.4062228 C10.1666423,11.9062216 9.51039383,12.2968457 8.78122906,12.578095 C8.05206429,12.8593443 7.29164912,12.999969 6.4999845,12.999969 C5.31248733,12.999969 4.22394842,12.7083032 3.23436729,12.1249711 C2.24478616,11.541639 1.45833002,10.7551828 0.874997914,9.76560172 C0.291665812,8.77602058 0,7.68748167 0,6.4999845 C0,5.31248733 0.291665812,4.22394842 0.874997914,3.23436729 C1.45833002,2.24478616 2.24478616,1.45833002 3.23436729,0.874997914 C4.22394842,0.291665812 5.31248733,0 6.4999845,0 C7.68748167,0 8.77602058,0.291665812 9.76560172,0.874997914 C10.7551828,1.45833002 11.541639,2.24478616 12.1249711,3.23436729 C12.7083032,4.22394842 12.999969,5.31248733 12.999969,6.4999845 C12.999969,7.29164912 12.8593443,8.05206429 12.578095,8.78122906 C12.2968457,9.51039383 11.9062216,10.1666423 11.4062228,10.7499744 L11.8437218,10.7499744 C11.947888,10.7499744 12.0312213,10.7812243 12.0937212,10.8437241 L15.9062121,14.6562151 Z M6.4999845,11.4999726 C7.39581586,11.4999726 8.22914689,11.2760146 8.99997854,10.8280992 C9.7708102,10.3801837 10.3801837,9.7708102 10.8280992,8.99997854 C11.2760146,8.22914689 11.4999726,7.39581586 11.4999726,6.4999845 C11.4999726,5.60415315 11.2760146,4.77082212 10.8280992,3.99999046 C10.3801837,3.22915881 9.7708102,2.61978526 8.99997854,2.17186982 C8.22914689,1.72395438 7.39581586,1.49999642 6.4999845,1.49999642 C5.60415315,1.49999642 4.77082212,1.72395438 3.99999046,2.17186982 C3.22915881,2.61978526 2.61978526,3.22915881 2.17186982,3.99999046 C1.72395438,4.77082212 1.49999642,5.60415315 1.49999642,6.4999845 C1.49999642,7.39581586 1.72395438,8.22914689 2.17186982,8.99997854 C2.61978526,9.7708102 3.22915881,10.3801837 3.99999046,10.8280992 C4.77082212,11.2760146 5.60415315,11.4999726 6.4999845,11.4999726 Z" id="path-1"></path>
    </defs>
    <g id="Components" stroke="none" stroke-width="1" fill="none" fill-rule="evenodd">
        <g id="Typography" transform="translate(-581.000000, -2056.000000)">
            <g id="Icons-/-Search" transform="translate(577.000000, 2052.000000)">
                <rect id="Rectangle" x="0" y="0" width="24" height="24"></rect>
                <g id="-Colours-/-shades-/-Grey" stroke-width="1" fill-rule="evenodd" transform="translate(4.000000, 4.000000)">
                    <mask id="mask-2" fill="white">
                        <use xlink:href="#path-1"></use>
                    </mask>
                    <use id="Mask" fill="#ACACAC" xlink:href="#path-1"></use>
                    <g id="-Colours-/-shades-/-68" mask="url(#mask-2)" fill="#ACACAC">
                        <g transform="translate(-4.000000, -4.000000)" id="Rectangle-2-Copy-5">
                            <rect x="0" y="0" width="24" height="24" rx="4"></rect>
                        </g>
                    </g>
                </g>
            </g>
        </g>
    </g>
</svg>