<?xml version="1.0" encoding="UTF-8"?>
<svg width="23px" height="14px" viewBox="0 0 23 14" version="1.1" xmlns="http://www.w3.org/2000/svg" xmlns:xlink="http://www.w3.org/1999/xlink">
    <!-- Generator: sketchtool 50.2 (55047) - http://www.bohemiancoding.com/sketch -->
    <title>4AB40B0E-6E7E-4F1A-B7F3-4DB81D7CA625</title>
    <desc>Created with sketchtool.</desc>
    <defs>
        <path d="M11.2499732,0 C11.9296589,0 12.5507513,0.164062288 13.11325,0.492186327 C13.6757486,0.820310365 14.1210603,1.26562198 14.4491843,1.82812064 C14.7773083,2.3906193 14.9413706,3.01171175 14.9413706,3.69139745 C14.9413706,4.37108315 14.7773083,4.9921756 14.4491843,5.55467426 C14.1210603,6.11717292 13.6757486,6.56248453 13.11325,6.89060857 C12.5507513,7.21873261 11.9296589,7.3827949 11.2499732,7.3827949 C10.5702875,7.3827949 9.94919503,7.21873261 9.38669637,6.89060857 C8.82419771,6.56248453 8.37888609,6.11717292 8.05076206,5.55467426 C7.72263802,4.9921756 7.55857573,4.37108315 7.55857573,3.69139745 C7.55857573,3.01171175 7.72263802,2.3906193 8.05076206,1.82812064 C8.37888609,1.26562198 8.82419771,0.820310365 9.38669637,0.492186327 C9.94919503,0.164062288 10.5702875,0 11.2499732,0 Z M15.22262,7.62888806 C15.8085562,7.76951273 16.2773049,8.06834014 16.6288666,8.5253703 C16.9804283,8.98240046 17.1562091,9.50388341 17.1562091,10.0898197 L17.1562091,12.2343458 C17.1562091,12.5859075 17.0331625,12.8847349 16.7870694,13.1308281 C16.5409762,13.3769212 16.2421488,13.4999678 15.8905871,13.4999678 L6.60935924,13.4999678 C6.25779758,13.4999678 5.95897017,13.3769212 5.712877,13.1308281 C5.46678384,12.8847349 5.34373726,12.5859075 5.34373726,12.2343458 L5.34373726,10.0898197 C5.34373726,9.50388341 5.51951809,8.98240046 5.87107975,8.5253703 C6.22264141,8.06834014 6.69139012,7.76951273 7.2773264,7.62888806 L8.68357305,7.2773264 C9.38669637,7.79295035 10.1952882,8.07419968 11.1093485,8.12107439 C12.0937212,8.1679491 12.9960629,7.88669977 13.8163733,7.2773264 L15.22262,7.62888806 Z M18.5624557,8.29685522 C17.88277,8.29685522 17.3026933,8.0566216 16.8222255,7.57615381 C16.3417577,7.09568603 16.1015241,6.51560929 16.1015241,5.83592359 C16.1015241,5.15623789 16.3417577,4.57616114 16.8222255,4.09569336 C17.3026933,3.61522558 17.88277,3.37499195 18.5624557,3.37499195 C19.2421414,3.37499195 19.8222182,3.61522558 20.302686,4.09569336 C20.7831538,4.57616114 21.0233874,5.15623789 21.0233874,5.83592359 C21.0233874,6.51560929 20.7831538,7.09568603 20.302686,7.57615381 C19.8222182,8.0566216 19.2421414,8.29685522 18.5624557,8.29685522 Z M3.93749061,8.29685522 C3.25780491,8.29685522 2.67772817,8.0566216 2.19726039,7.57615381 C1.7167926,7.09568603 1.47655898,6.51560929 1.47655898,5.83592359 C1.47655898,5.15623789 1.7167926,4.57616114 2.19726039,4.09569336 C2.67772817,3.61522558 3.25780491,3.37499195 3.93749061,3.37499195 C4.61717631,3.37499195 5.19725305,3.61522558 5.67772084,4.09569336 C6.15818862,4.57616114 6.39842224,5.15623789 6.39842224,5.83592359 C6.39842224,6.51560929 6.15818862,7.09568603 5.67772084,7.57615381 C5.19725305,8.0566216 4.61717631,8.29685522 3.93749061,8.29685522 Z M4.7812386,10.0898197 L4.7812386,12.3749705 L0.843747988,12.3749705 C0.609373368,12.3749705 0.410155451,12.2929396 0.246093163,12.1288773 C0.0820308756,11.964815 0,11.7655971 0,11.5312225 L0,10.0898197 C0,9.71482041 0.117187042,9.37497783 0.351561662,9.07029087 C0.585936282,8.76560392 0.890622698,8.566386 1.26562198,8.47263605 L2.21483847,8.22654289 C2.63671246,8.53122984 3.11718025,8.71286967 3.65624128,8.77146346 C4.19530232,8.83005725 4.72264481,8.74216684 5.23826876,8.50779222 C4.93358181,8.99997854 4.7812386,9.52732104 4.7812386,10.0898197 Z M21.2343244,8.47263605 C21.6093237,8.566386 21.9140101,8.76560392 22.1483847,9.07029087 C22.3827593,9.37497783 22.4999464,9.71482041 22.4999464,10.0898197 L22.4999464,11.5312225 C22.4999464,11.7655971 22.4179155,11.964815 22.2538532,12.1288773 C22.0897909,12.2929396 21.890573,12.3749705 21.6561984,12.3749705 L17.7187078,12.3749705 L17.7187078,10.0898197 C17.7187078,9.52732104 17.5663645,8.98826 17.2616776,8.47263605 C17.7304263,8.70701067 18.2226126,8.81247917 18.7382366,8.78904155 C19.3007352,8.76560392 19.8163592,8.57810455 20.2851079,8.22654289 L21.2343244,8.47263605 Z" id="path-1"></path>
    </defs>
    <g id="Components" stroke="none" stroke-width="1" fill="none" fill-rule="evenodd">
        <g id="Typography" transform="translate(-955.000000, -2057.000000)">
            <g id="Icons-/-Group" transform="translate(954.000000, 2052.000000)">
                <g id="-Colours-/-shades-/-Grey"></g>
                <g id="-Colours-/-shades-/-Grey" transform="translate(1.000000, 5.000000)">
                    <mask id="mask-2" fill="white">
                        <use xlink:href="#path-1"></use>
                    </mask>
                    <use id="Mask" fill="#286555" xlink:href="#path-1"></use>
                    <g id="-Colours-/-shades-/-68" mask="url(#mask-2)" fill="#ACACAC">
                        <g transform="translate(-1.000000, -5.000000)" id="Rectangle-2-Copy-5">
                            <rect x="0" y="0" width="24" height="24" rx="4"></rect>
                        </g>
                    </g>
                </g>
            </g>
        </g>
    </g>
</svg>