<?xml version="1.0" encoding="UTF-8"?>
<svg width="14px" height="19px" viewBox="0 0 14 19" version="1.1" xmlns="http://www.w3.org/2000/svg" xmlns:xlink="http://www.w3.org/1999/xlink">
    <!-- Generator: sketchtool 50.2 (55047) - http://www.bohemiancoding.com/sketch -->
    <title>F3390138-F0BF-46E3-9C8D-1649742B5C36</title>
    <desc>Created with sketchtool.</desc>
    <defs>
        <path d="M6.04686058,17.898433 C5.43748721,17.0078103 4.65233248,15.882813 3.69139745,14.523441 C2.51952542,12.835945 1.74608977,11.6992292 1.37109048,11.1132929 C0.832029445,10.2695449 0.468748704,9.56056205 0.281249329,8.98634485 C0.0937499553,8.41212764 0,7.75001949 0,7.00002146 C0,5.78127418 0.304686952,4.65627687 0.914060321,3.6250295 C1.52343369,2.59378214 2.34374459,1.77347124 3.37499195,1.16409787 C4.40623932,0.554724503 5.53123663,0.250037551 6.74998391,0.250037551 C7.96873118,0.250037551 9.0937285,0.554724503 10.1249759,1.16409787 C11.1562232,1.77347124 11.9765341,2.59378214 12.5859075,3.6250295 C13.1952809,4.65627687 13.4999678,5.78127418 13.4999678,7.00002146 C13.4999678,7.75001949 13.4062179,8.41212764 13.2187185,8.98634485 C13.0312191,9.56056205 12.6679384,10.2695449 12.1288773,11.1132929 C11.753878,11.6992292 10.9804424,12.835945 9.80857036,14.523441 L7.45310723,17.898433 C7.28904494,18.1328076 7.05467086,18.2499946 6.74998391,18.2499946 C6.44529695,18.2499946 6.21092287,18.1328076 6.04686058,17.898433 Z M6.74998391,9.81251475 C7.52341956,9.81251475 8.18552718,9.53712496 8.7363073,8.98634485 C9.28708741,8.43556473 9.5624772,7.77345711 9.5624772,7.00002146 C9.5624772,6.2265858 9.28708741,5.56447818 8.7363073,5.01369807 C8.18552718,4.46291795 7.52341956,4.18752816 6.74998391,4.18752816 C5.97654825,4.18752816 5.31444063,4.46291795 4.76366052,5.01369807 C4.2128804,5.56447818 3.93749061,6.2265858 3.93749061,7.00002146 C3.93749061,7.77345711 4.2128804,8.43556473 4.76366052,8.98634485 C5.31444063,9.53712496 5.97654825,9.81251475 6.74998391,9.81251475 Z" id="path-1"></path>
    </defs>
    <g id="Components" stroke="none" stroke-width="1" fill="none" fill-rule="evenodd">
        <g id="Typography" transform="translate(-743.000000, -2055.000000)">
            <g id="Icons-/-Location" transform="translate(738.000000, 2052.000000)">
                <g id="-Colours-/-shades-/-Grey" transform="translate(5.000000, 3.000000)">
                    <mask id="mask-2" fill="white">
                        <use xlink:href="#path-1"></use>
                    </mask>
                    <use id="Mask" fill="#333366" xlink:href="#path-1"></use>
                    <g id="-Colours-/-shades-/-68" mask="url(#mask-2)" fill="#ACACAC">
                        <g transform="translate(-5.000000, -3.000000)" id="Rectangle-2-Copy-5">
                            <rect x="0" y="0" width="24" height="24" rx="4"></rect>
                        </g>
                    </g>
                </g>
            </g>
        </g>
    </g>
</svg>