<?xml version="1.0" encoding="UTF-8"?>
<svg width="17px" height="17px" viewBox="0 0 17 17" version="1.1" xmlns="http://www.w3.org/2000/svg" xmlns:xlink="http://www.w3.org/1999/xlink">
    <!-- Generator: sketchtool 50.2 (55047) - http://www.bohemiancoding.com/sketch -->
    <title>5538A98F-BAF2-49D6-B892-A56DD6287847</title>
    <desc>Created with sketchtool.</desc>
    <defs>
        <path d="M8.15623055,6.25001609 L12.7265322,10.8203177 C12.7968445,10.9140677 12.8320007,11.0195362 12.8320007,11.1367232 C12.8320007,11.2539102 12.7968445,11.3476602 12.7265322,11.4179725 L11.9179403,12.2265643 C11.847628,12.2968767 11.753878,12.3320328 11.636691,12.3320328 C11.519504,12.3320328 11.4140355,12.2968767 11.3202855,12.2265643 L6.74998391,7.65626274 L2.1796823,12.2265643 C2.08593235,12.2968767 1.98046385,12.3320328 1.86327681,12.3320328 C1.74608977,12.3320328 1.65233981,12.2968767 1.58202748,12.2265643 L0.773435656,11.4179725 C0.703123324,11.3476602 0.667967157,11.2539102 0.667967157,11.1367232 C0.667967157,11.0195362 0.703123324,10.9140677 0.773435656,10.8203177 L5.34373726,6.25001609 L0.773435656,1.67971449 C0.703123324,1.58596453 0.667967157,1.48049604 0.667967157,1.36330899 C0.667967157,1.24612195 0.703123324,1.152372 0.773435656,1.08205966 L1.58202748,0.273467842 C1.65233981,0.20315551 1.74608977,0.167999344 1.86327681,0.167999344 C1.98046385,0.167999344 2.08593235,0.20315551 2.1796823,0.273467842 L6.74998391,4.84376945 L11.3202855,0.273467842 C11.4140355,0.20315551 11.519504,0.167999344 11.636691,0.167999344 C11.753878,0.167999344 11.847628,0.20315551 11.9179403,0.273467842 L12.7265322,1.08205966 C12.7968445,1.152372 12.8320007,1.24612195 12.8320007,1.36330899 C12.8320007,1.48049604 12.7968445,1.58596453 12.7265322,1.67971449 L8.15623055,6.25001609 Z" id="path-1"></path>
    </defs>
    <g id="Components" stroke="none" stroke-width="1" fill="none" fill-rule="evenodd">
        <g id="Typography" transform="translate(-472.000000, -2104.000000)">
            <g id="Icons-/-Plus" transform="translate(468.000000, 2100.000000)">
                <rect id="Rectangle" x="0" y="0" width="24" height="24"></rect>
                <g id="-Colours-/-shades-/-Grey" stroke-width="1" fill-rule="evenodd" transform="translate(12.500000, 12.500000) rotate(-45.000000) translate(-12.500000, -12.500000) translate(6.000000, 6.000000)">
                    <mask id="mask-2" fill="white">
                        <use xlink:href="#path-1"></use>
                    </mask>
                    <use id="Mask" fill="#ACACAC" xlink:href="#path-1"></use>
                    <g id="-Colours-/-shades-/-68" mask="url(#mask-2)" fill="#ACACAC">
                        <g transform="translate(-5.000000, -6.000000)" id="Rectangle-2-Copy-5">
                            <rect x="0" y="0" width="24" height="24" rx="4"></rect>
                        </g>
                    </g>
                </g>
            </g>
        </g>
    </g>
</svg>