<?xml version="1.0" encoding="UTF-8"?>
<svg width="23px" height="23px" viewBox="0 0 23 23" version="1.1" xmlns="http://www.w3.org/2000/svg" xmlns:xlink="http://www.w3.org/1999/xlink">
    <!-- Generator: sketchtool 50.2 (55047) - http://www.bohemiancoding.com/sketch -->
    <title>ED14BEEA-A956-43EE-A513-C6AEE15622B9</title>
    <desc>Created with sketchtool.</desc>
    <defs>
        <path d="M11.1249723,0 C13.1286638,0 14.9828256,0.500923039 16.6874584,1.50276843 C18.3920913,2.50461383 19.7453307,3.85785329 20.7471761,5.56248614 C21.7490215,7.26711899 22.2499446,9.12128081 22.2499446,11.1249723 C22.2499446,13.1286638 21.7490215,14.9828256 20.7471761,16.6874584 C19.7453307,18.3920913 18.3920913,19.7453307 16.6874584,20.7471761 C14.9828256,21.7490215 13.1286638,22.2499446 11.1249723,22.2499446 C9.12128081,22.2499446 7.26711899,21.7490215 5.56248614,20.7471761 C3.85785329,19.7453307 2.50461383,18.3920913 1.50276843,16.6874584 C0.500923039,14.9828256 0,13.1286638 0,11.1249723 C0,9.12128081 0.500923039,7.26711899 1.50276843,5.56248614 C2.50461383,3.85785329 3.85785329,2.50461383 5.56248614,1.50276843 C7.26711899,0.500923039 9.12128081,0 11.1249723,0 Z M11.1249723,1.43548029 C9.36052798,1.43548029 7.73813596,1.8691152 6.25779691,2.73638431 C4.77745786,3.60365343 3.60365343,4.77745786 2.73638431,6.25779691 C1.8691152,7.73813596 1.43548029,9.36052798 1.43548029,11.1249723 C1.43548029,12.9492287 1.91397395,14.6389082 2.87096059,16.1940121 C3.11020708,15.5958955 3.49898322,15.1024492 4.03728833,14.713673 C4.48587592,14.3548029 4.9494162,14.1155565 5.42790986,13.9959329 L6.86339016,13.5473453 C5.87649746,12.4707351 5.38305111,11.1847837 5.38305111,9.68949199 C5.38305111,8.64278784 5.63725097,7.67832451 6.14565001,6.79610202 C6.65404905,5.91387953 7.34935982,5.21856876 8.23158231,4.71016972 C9.11380481,4.20177067 10.0782681,3.94757081 11.1249723,3.94757081 C12.1716764,3.94757081 13.1361398,4.20177067 14.0183623,4.71016972 C14.9005847,5.21856876 15.5958955,5.91387953 16.1042946,6.79610202 C16.6126936,7.67832451 16.8668935,8.64278784 16.8668935,9.68949199 C16.8668935,11.1847837 16.3734471,12.4707351 15.3865544,13.5473453 L16.8220347,13.9959329 C17.3304337,14.1155565 17.7939747,14.3548029 18.2126562,14.713673 C18.7509613,15.1024492 19.1397375,15.5958955 19.378984,16.1940121 C20.3359706,14.6389082 20.8144643,12.9492287 20.8144643,11.1249723 C20.8144643,9.36052798 20.3808294,7.73813596 19.5135603,6.25779691 C18.6462911,4.77745786 17.4724867,3.60365343 15.9921477,2.73638431 C14.5118086,1.8691152 12.8894166,1.43548029 11.1249723,1.43548029 Z M11.1249723,13.9959329 C12.3212061,13.9959329 13.3380042,13.5772513 14.1753679,12.7398876 C15.0127316,11.9025239 15.4314132,10.8857258 15.4314132,9.68949199 C15.4314132,8.49325818 15.0127316,7.4764601 14.1753679,6.63909636 C13.3380042,5.80173263 12.3212061,5.38305111 11.1249723,5.38305111 C9.92873848,5.38305111 8.91194039,5.80173263 8.07457666,6.63909636 C7.23721292,7.4764601 6.8185314,8.49325818 6.8185314,9.68949199 C6.8185314,10.8857258 7.23721292,11.9025239 8.07457666,12.7398876 C8.91194039,13.5772513 9.92873848,13.9959329 11.1249723,13.9959329 Z M11.1249723,20.8144643 C12.5305465,20.8144643 13.8538799,20.537835 15.0949725,19.9845772 C16.336065,19.4313194 17.4051986,18.6462911 18.3023738,17.6294924 C18.2724677,17.0911873 18.0855566,16.6126936 17.7416393,16.1940121 C17.3977219,15.7753306 16.9715637,15.4912246 16.4631646,15.3416956 L13.9959329,14.6688143 C13.1286638,15.1772133 12.1716764,15.4314132 11.1249723,15.4314132 C10.0782681,15.4314132 9.12128081,15.1772133 8.25401169,14.6688143 L5.78677994,15.3416956 C5.2783809,15.4912246 4.85222268,15.7753306 4.5083053,16.1940121 C4.16438792,16.6126936 3.97747688,17.0911873 3.94757081,17.6294924 C4.84474599,18.6462911 5.91387953,19.4313194 7.15497209,19.9845772 C8.39606466,20.537835 9.71939806,20.8144643 11.1249723,20.8144643 Z" id="path-1"></path>
    </defs>
    <g id="Components" stroke="none" stroke-width="1" fill="none" fill-rule="evenodd">
        <g id="Typography" transform="translate(-524.000000, -2053.000000)">
            <g id="Icons-/-Profile-hub" transform="translate(523.000000, 2052.000000)">
                <rect id="Rectangle" x="0" y="0" width="24" height="24"></rect>
                <g id="Icon" stroke-width="1" fill-rule="evenodd" transform="translate(1.000000, 1.000000)">
                    <mask id="mask-2" fill="white">
                        <use xlink:href="#path-1"></use>
                    </mask>
                    <use id="Mask" fill="#A5A5A5" xlink:href="#path-1"></use>
                    <g id="-Colours-/-shades-/-68" mask="url(#mask-2)" fill="#ACACAC">
                        <g transform="translate(-1.000000, -1.000000)" id="Rectangle-2-Copy-5">
                            <rect x="0" y="0" width="24" height="24" rx="4"></rect>
                        </g>
                    </g>
                </g>
            </g>
        </g>
    </g>
</svg>