<?xml version="1.0" encoding="UTF-8"?>
<svg width="18px" height="18px" viewBox="0 0 18 18" version="1.1" xmlns="http://www.w3.org/2000/svg" xmlns:xlink="http://www.w3.org/1999/xlink">
    <!-- Generator: sketchtool 50.2 (55047) - http://www.bohemiancoding.com/sketch -->
    <title>BAF9F594-8C07-47BA-8FDD-9B47D947FEE5</title>
    <desc>Created with sketchtool.</desc>
    <defs>
        <path d="M5.705,13.295 L5.705,13.295 C5.31563925,13.6843607 4.68436075,13.6843607 4.295,13.295 L0.74246212,9.74246212 C0.332411614,9.33241161 0.332411614,8.66758839 0.74246212,8.25753788 L4.295,4.705 C4.68436075,4.31563925 5.31563925,4.31563925 5.705,4.705 L5.705,4.705 C6.09458114,5.09458114 6.09519182,5.72602837 5.70636495,6.11636232 L3.83,8 L12.5,8 C13.0522847,8 13.5,8.44771525 13.5,9 L13.5,9 C13.5,9.55228475 13.0522847,10 12.5,10 L3.83,10 L5.70636495,11.8836377 C6.09519182,12.2739716 6.09458114,12.9054189 5.705,13.295 Z M16,7.10542736e-15 L9.66288775,7.10542736e-15 C8.55288775,7.10542736e-15 7.66288775,0.9 7.66288775,2 L7.66288775,5 C7.66288775,5.55228475 8.110603,6 8.66288775,6 L8.66288775,6 C9.2151725,6 9.66288775,5.55228475 9.66288775,5 L9.66288775,2 L16,2 L16,16 L9.66288775,16 L9.66288775,13 C9.66288775,12.4477153 9.2151725,12 8.66288775,12 L8.66288775,12 C8.110603,12 7.66288775,12.4477153 7.66288775,13 L7.66288775,16 C7.66288775,17.1 8.55288775,18 9.66288775,18 L16,18 C17.1,18 18,17.1 18,16 L18,2 C18,0.9 17.1,7.10542736e-15 16,7.10542736e-15 Z" id="path-1"></path>
    </defs>
    <g id="Components" stroke="none" stroke-width="1" fill="none" fill-rule="evenodd">
        <g id="Typography" transform="translate(-417.000000, -2103.000000)">
            <g id="Icons-/-Share" transform="translate(414.000000, 2100.000000)">
                <g id="-Colours-/-shades-/-Grey" transform="translate(12.000000, 12.000000) rotate(-270.000000) translate(-12.000000, -12.000000) translate(3.000000, 3.000000)">
                    <mask id="mask-2" fill="white">
                        <use xlink:href="#path-1"></use>
                    </mask>
                    <use id="Mask" fill="#000000" fill-rule="nonzero" xlink:href="#path-1"></use>
                    <g id="-Colours-/-shades-/-68" mask="url(#mask-2)" fill="#ACACAC">
                        <g transform="translate(-3.000000, -3.000000)" id="Rectangle-2-Copy-5">
                            <rect x="0" y="0" width="24" height="24" rx="4"></rect>
                        </g>
                    </g>
                </g>
            </g>
        </g>
    </g>
</svg>