<?xml version="1.0" encoding="UTF-8"?>
<svg width="16px" height="15px" viewBox="0 0 16 15" version="1.1" xmlns="http://www.w3.org/2000/svg" xmlns:xlink="http://www.w3.org/1999/xlink">
    <!-- Generator: sketchtool 50.2 (55047) - http://www.bohemiancoding.com/sketch -->
    <title>089667FD-D7CE-4202-8141-27A059D71DA9</title>
    <desc>Created with sketchtool.</desc>
    <defs>
        <path d="M15.5809287,12.0380573 C15.7267616,12.3297235 15.7723345,12.6259466 15.7176472,12.9267271 C15.6629598,13.2275076 15.5171269,13.4827152 15.2801482,13.6923503 C15.0431695,13.9019853 14.7606182,14.0068026 14.432494,14.0068026 L1.30752527,14.0068026 C0.979401051,14.0068026 0.696849781,13.9019853 0.45987104,13.6923503 C0.222892299,13.4827152 0.0770594528,13.2275076 0.0223720832,12.9267271 C-0.0323152864,12.6259466 0.0132576607,12.3297235 0.159090507,12.0380573 L6.72157486,0.663084461 C6.88563697,0.371418351 7.11805829,0.175455554 7.41883882,0.0751952375 C7.71961936,-0.0250650792 8.02039989,-0.0250650792 8.32118042,0.0751952375 C8.62196096,0.175455554 8.85438228,0.371418351 9.01844438,0.663084461 L15.5809287,12.0380573 Z M7.87000962,9.68650045 C7.52365614,9.68650045 7.22743303,9.80954703 6.98133987,10.0556402 C6.7352467,10.3017334 6.61220012,10.5979565 6.61220012,10.9443099 C6.61220012,11.2906634 6.7352467,11.5868865 6.98133987,11.8329797 C7.22743303,12.0790729 7.52365614,12.2021194 7.87000962,12.2021194 C8.2163631,12.2021194 8.51258622,12.0790729 8.75867938,11.8329797 C9.00477254,11.5868865 9.12781912,11.2906634 9.12781912,10.9443099 C9.12781912,10.5979565 9.00477254,10.3017334 8.75867938,10.0556402 C8.51258622,9.80954703 8.2163631,9.68650045 7.87000962,9.68650045 Z M6.66688749,5.17479245 L6.88563697,8.89353359 C6.88563697,8.96645022 6.91753807,9.03480943 6.98133987,9.09861122 C7.04514166,9.16241302 7.12261571,9.19431412 7.21376119,9.19431412 L8.52625806,9.19431412 C8.61740354,9.19431412 8.69487759,9.16241302 8.75867938,9.09861122 C8.82248117,9.03480943 8.85438228,8.96645022 8.85438228,8.89353359 L9.07313175,5.17479245 C9.07313175,5.06541771 9.04123065,4.97882924 8.97742886,4.91502745 C8.91362707,4.85122566 8.83615301,4.81932455 8.74500754,4.81932455 L6.99501171,4.81932455 C6.90386623,4.81932455 6.82639218,4.85122566 6.76259039,4.91502745 C6.6987886,4.97882924 6.66688749,5.06541771 6.66688749,5.17479245 Z" id="path-1"></path>
    </defs>
    <g id="Components" stroke="none" stroke-width="1" fill="none" fill-rule="evenodd">
        <g id="Typography" transform="translate(-1012.000000, -2057.000000)">
            <g id="Icons-/-Warning" transform="translate(1008.000000, 2052.000000)">
                <g id="-Colours-/-shades-/-Grey" transform="translate(4.000000, 5.000000)">
                    <mask id="mask-2" fill="white">
                        <use xlink:href="#path-1"></use>
                    </mask>
                    <use id="Mask" fill="#ACACAC" xlink:href="#path-1"></use>
                    <g id="-Colours-/-shades-/-68" mask="url(#mask-2)" fill="#ACACAC">
                        <g transform="translate(-4.000000, -5.000000)" id="Rectangle-2-Copy-5">
                            <rect x="0" y="0" width="24" height="24" rx="4"></rect>
                        </g>
                    </g>
                </g>
            </g>
        </g>
    </g>
</svg>