<?xml version="1.0" encoding="UTF-8"?>
<svg width="69px" height="23px" viewBox="0 0 69 23" version="1.1" xmlns="http://www.w3.org/2000/svg" xmlns:xlink="http://www.w3.org/1999/xlink">
    <!-- Generator: Sketch 50.2 (55047) - http://www.bohemiancoding.com/sketch -->
    <title>logo</title>
    <desc>Created with Sketch.</desc>
    <defs>
        <path d="M3.93653622,0.400000006 L17,0.400000006 L16.4483133,2.88065333 L5.41594339,14.3112834 L14.4424248,14.3112834 L13.7904965,17.4 L0,17.4 L0.526515471,14.9436295 L11.6091596,3.4887166 L3.25953903,3.4887166 L3.93653622,0.400000006 Z M20.8195334,17.39792 C19.0984086,17.39792 17.6985643,16.9902568 16.6191386,16.1745783 C15.539649,15.3592519 15,14.2142172 15,12.7398581 C15,12.3480355 15.0469232,11.9164994 15.1407378,11.4459218 C15.5473738,9.54850697 16.3880656,8.06637164 17.6633559,6.99967582 C18.9382313,5.93336401 20.655334,5.4000001 22.8141217,5.4000001 C23.9558882,5.4000001 24.914335,5.60794386 25.6885683,6.02338337 C26.4632165,6.43907889 27.0415851,6.99602768 27.4253022,7.69368573 C27.8085724,8.39175979 28,9.16404462 28,10.0108922 C28,10.4189395 27.9533641,10.8266027 27.8592622,11.2342659 L27.554389,12.6692955 L18.2617069,12.6692955 C18.1990787,14.1124214 19.3880877,14.8336643 21.8285424,14.8336643 L27.0804005,14.8719057 L26.537751,17.4000001 L20.8195334,17.39792 Z M24.9330752,10.3760567 C24.9642095,10.1566245 24.98,9.99188236 24.98,9.88202226 C24.98,8.62751143 24.1357992,8 22.4472382,8 C21.5561445,8 20.80943,8.2116879 20.2077328,8.63515971 C19.6057166,9.05866352 19.2029795,9.63906919 19,10.3760567 L24.9330752,10.3760567 Z M29.5666667,14.8736422 L33.6297,14.8588876 C34.2993667,14.8588876 34.8017,14.8041581 35.1366667,14.6941551 C35.4714,14.5846641 35.6715333,14.3805967 35.7370333,14.0824971 C35.7859667,13.8471923 35.7370333,13.655223 35.5900333,13.5060131 C35.4430333,13.3570913 35.2017667,13.2236282 34.8672333,13.1059758 C34.5320667,12.9884194 33.9642,12.8118768 33.1641,12.576572 C32.0204333,12.2317763 31.1791667,11.8394843 30.6401,11.4002401 C30.1010333,10.961252 29.8313667,10.3965782 29.8313667,9.70609048 C29.8313667,9.43961229 29.8639333,9.18081544 29.9294667,8.9296679 C30.2070667,7.73781332 30.8767667,6.85141967 31.9387333,6.27099907 C33.0005333,5.6908025 34.3972333,5.40044817 36.1291,5.40044817 L40,5.4000001 L39.4333333,7.99244945 L36.0310667,7.98854478 C35.3611333,7.98854478 34.8304667,8.05146768 34.4383667,8.1767694 C34.0461,8.30248719 33.8092,8.53779198 33.7277333,8.88261975 C33.6786,9.11792454 33.7479333,9.30611716 33.9358667,9.44729363 C34.1236,9.58853411 34.4464,9.72593392 34.9039667,9.85901299 C35.3611333,9.99250813 35.8676333,10.1296199 36.4231,10.2708604 C37.6155,10.6002295 38.4569667,10.9729661 38.9471,11.3884301 C39.4372667,11.8042142 39.6823333,12.3494287 39.6823333,13.0236895 C39.6823333,13.2747411 39.6413667,13.5964608 39.5597,13.9883047 C39.3308,15.0551777 38.7144333,15.8904584 37.7095667,16.4941471 C36.7049333,17.0977397 35.2550667,17.4000001 33.3600333,17.4000001 L29,17.4000001 L29.5666667,14.8736422 Z M44.9287326,16.9979247 C43.8226523,16.9979247 42.9677519,16.7122089 42.3645441,16.1411604 C41.7610629,15.5702397 41.4594419,14.823177 41.4594419,13.8997488 C41.4594419,13.602667 41.5010259,13.2583011 41.5850489,12.8669703 L42.7597292,7.58689498 L41,7.58689498 L41.6032419,5.02857477 C44.0347445,5.02857477 44.0488681,2 44.0488681,2 L47.8449832,2 L47.1591546,5.02857477 L50,5.02857477 L49.3965187,7.58689498 L46.5558785,7.58689498 L45.481807,12.3976097 C45.397784,12.8201332 45.3562,13.1252607 45.3562,13.3129922 C45.3562,13.6730344 45.4693249,13.9195437 45.6955065,14.0522966 C45.9217222,14.1854646 46.3196772,14.2518411 46.8897476,14.2518411 L47.858286,14.2421991 L47.2123316,17 L44.9287326,16.9979247 Z M53.5681686,0 L57,0 L53.4318314,17 L50,17 L53.5681686,0 Z M65.3050381,5.4000001 L69,5.4000001 L66.67525,16.1507377 C66.2348782,18.19397 65.3539018,19.7460422 64.0325536,20.807899 C62.7112386,21.8691694 60.7616534,22.4000001 58.1841972,22.4000001 C57.401181,22.4000001 56.6263198,22.3281826 55.8596469,22.1845476 C55.0927743,22.0409126 54.472892,21.849269 54,21.6100076 L54.5628304,18.9521413 C55.6883247,19.4946647 57.0830349,19.7663335 58.7470276,19.7663335 C59.9215852,19.7663335 60.822866,19.5028724 61.4509367,18.9761456 C62.0001198,18.5152108 62.4339343,17.8529916 62.7526795,16.9891622 L60.1049236,16.9901068 C58.8649593,16.9901068 57.9064268,16.666814 57.2297256,16.0203588 C56.5525916,15.3739036 56.2143409,14.5160021 56.2143409,13.4463936 C56.2143409,13.0153909 56.2547832,12.6322991 56.3365998,12.2971182 L57.829237,5.40127034 L61.5241988,5.40127034 L60.1049236,11.9140264 L59.9222842,12.7796797 C59.8118751,13.3031495 60.199988,13.8012795 60.7451103,13.8357063 L62.4925506,13.8349572 C63.1000506,13.8346967 63.6189769,13.4061693 63.7213309,12.8202297 L63.787836,12.439483 L65.3050381,5.4000001 Z" id="path-1"></path>
    </defs>
    <g id="Symbols" stroke="none" stroke-width="1" fill="none" fill-rule="evenodd">
        <g id="Logo">
            <mask id="mask-2" fill="white">
                <use xlink:href="#path-1"></use>
            </mask>
            <use id="logo" fill="#5A4DB2" xlink:href="#path-1"></use>
        </g>
    </g>
</svg>