<?xml version="1.0" encoding="UTF-8"?>
<svg width="36px" height="36px" viewBox="0 0 36 36" version="1.1" xmlns="http://www.w3.org/2000/svg" xmlns:xlink="http://www.w3.org/1999/xlink">
    <!-- Generator: sketchtool 50.2 (55047) - http://www.bohemiancoding.com/sketch -->
    <title>78C43AAB-19AF-420B-888D-DB11DB6555DC</title>
    <desc>Created with sketchtool.</desc>
    <defs></defs>
    <g id="Components" stroke="none" stroke-width="1" fill="none" fill-rule="evenodd">
        <g id="Cards" transform="translate(-564.000000, -1218.000000)">
            <g id="Profile-suggestions" transform="translate(181.000000, 1205.000000)">
                <g id="Profile-suggestions-2" transform="translate(354.000000, 0.000000)">
                    <g id="Group-3" transform="translate(29.000000, 13.000000)">
                        <circle id="Oval" fill="#5A4DB2" cx="18" cy="18" r="18"></circle>
                        <path d="M24.7499624,9.25003755 C25.3593358,9.25003755 25.8866783,9.47269309 26.3319899,9.91800471 C26.7773015,10.3633163 26.9999571,10.8906588 26.9999571,11.5000322 L26.9999571,21.625008 C26.9999571,22.2343814 26.7773015,22.7617239 26.3319899,23.2070355 C25.8866783,23.6523471 25.3593358,23.8750027 24.7499624,23.8750027 L19.6874745,23.8750027 L15.2929537,27.1796823 C15.1523291,27.2734323 15.0058449,27.2792913 14.8535017,27.1972604 C14.7011585,27.1152295 14.6249866,26.9921829 14.6249866,26.8281206 L14.6249866,23.8750027 L11.2499946,23.8750027 C10.6406213,23.8750027 10.1132788,23.6523471 9.66796716,23.2070355 C9.22265554,22.7617239 9,22.2343814 9,21.625008 L9,11.5000322 C9,10.8906588 9.22265554,10.3633163 9.66796716,9.91800471 C10.1132788,9.47269309 10.6406213,9.25003755 11.2499946,9.25003755 L24.7499624,9.25003755 Z" id="" fill="#FFFFFF"></path>
                    </g>
                </g>
            </g>
        </g>
    </g>
</svg>