<?xml version="1.0" encoding="UTF-8"?>
<svg width="36px" height="36px" viewBox="0 0 36 36" version="1.1" xmlns="http://www.w3.org/2000/svg" xmlns:xlink="http://www.w3.org/1999/xlink">
    <!-- Generator: sketchtool 50.2 (55047) - http://www.bohemiancoding.com/sketch -->
    <title>60E5BD78-D78D-418F-B7B6-5E235A3F7BAA</title>
    <desc>Created with sketchtool.</desc>
    <defs></defs>
    <g id="Components" stroke="none" stroke-width="1" fill="none" fill-rule="evenodd">
        <g id="Cards" transform="translate(-210.000000, -1218.000000)">
            <g id="Profile-suggestions" transform="translate(181.000000, 1205.000000)">
                <g id="Profile-suggestions-1">
                    <g id="Group-2" transform="translate(29.000000, 13.000000)">
                        <circle id="Oval" fill="#69B4A0" cx="18" cy="18" r="18"></circle>
                        <path d="M17.9999732,10.5000322 C18.6796589,10.5000322 19.3007513,10.6640945 19.86325,10.9922185 C20.4257486,11.3203426 20.8710603,11.7656542 21.1991843,12.3281528 C21.5273083,12.8906515 21.6913706,13.5117439 21.6913706,14.1914296 C21.6913706,14.8711153 21.5273083,15.4922078 21.1991843,16.0547064 C20.8710603,16.6172051 20.4257486,17.0625167 19.86325,17.3906408 C19.3007513,17.7187648 18.6796589,17.8828271 17.9999732,17.8828271 C17.3202875,17.8828271 16.699195,17.7187648 16.1366964,17.3906408 C15.5741977,17.0625167 15.1288861,16.6172051 14.8007621,16.0547064 C14.472638,15.4922078 14.3085757,14.8711153 14.3085757,14.1914296 C14.3085757,13.5117439 14.472638,12.8906515 14.8007621,12.3281528 C15.1288861,11.7656542 15.5741977,11.3203426 16.1366964,10.9922185 C16.699195,10.6640945 17.3202875,10.5000322 17.9999732,10.5000322 Z M21.97262,18.1289202 C22.5585562,18.2695449 23.0273049,18.5683723 23.3788666,19.0254025 C23.7304283,19.4824326 23.9062091,20.0039156 23.9062091,20.5898519 L23.9062091,22.734378 C23.9062091,23.0859397 23.7831625,23.3847671 23.5370694,23.6308603 C23.2909762,23.8769534 22.9921488,24 22.6405871,24 L13.3593592,24 C13.0077976,24 12.7089702,23.8769534 12.462877,23.6308603 C12.2167838,23.3847671 12.0937373,23.0859397 12.0937373,22.734378 L12.0937373,20.5898519 C12.0937373,20.0039156 12.2695181,19.4824326 12.6210798,19.0254025 C12.9726414,18.5683723 13.4413901,18.2695449 14.0273264,18.1289202 L15.433573,17.7773586 C16.1366964,18.2929825 16.9452882,18.5742319 17.8593485,18.6211066 C18.8437212,18.6679813 19.7460629,18.386732 20.5663733,17.7773586 L21.97262,18.1289202 Z M25.3124557,18.7968874 C24.63277,18.7968874 24.0526933,18.5566538 23.5722255,18.076186 C23.0917577,17.5957182 22.8515241,17.0156415 22.8515241,16.3359558 C22.8515241,15.6562701 23.0917577,15.0761933 23.5722255,14.5957255 C24.0526933,14.1152578 24.63277,13.8750241 25.3124557,13.8750241 C25.9921414,13.8750241 26.5722182,14.1152578 27.052686,14.5957255 C27.5331538,15.0761933 27.7733874,15.6562701 27.7733874,16.3359558 C27.7733874,17.0156415 27.5331538,17.5957182 27.052686,18.076186 C26.5722182,18.5566538 25.9921414,18.7968874 25.3124557,18.7968874 Z M10.6874906,18.7968874 C10.0078049,18.7968874 9.42772817,18.5566538 8.94726039,18.076186 C8.4667926,17.5957182 8.22655898,17.0156415 8.22655898,16.3359558 C8.22655898,15.6562701 8.4667926,15.0761933 8.94726039,14.5957255 C9.42772817,14.1152578 10.0078049,13.8750241 10.6874906,13.8750241 C11.3671763,13.8750241 11.9472531,14.1152578 12.4277208,14.5957255 C12.9081886,15.0761933 13.1484222,15.6562701 13.1484222,16.3359558 C13.1484222,17.0156415 12.9081886,17.5957182 12.4277208,18.076186 C11.9472531,18.5566538 11.3671763,18.7968874 10.6874906,18.7968874 Z M11.5312386,20.5898519 L11.5312386,22.8750027 L7.59374799,22.8750027 C7.35937337,22.8750027 7.16015545,22.7929718 6.99609316,22.6289095 C6.83203088,22.4648472 6.75,22.2656293 6.75,22.0312547 L6.75,20.5898519 C6.75,20.2148526 6.86718704,19.87501 7.10156166,19.5703231 C7.33593628,19.2656361 7.6406227,19.0664182 8.01562198,18.9726682 L8.96483847,18.7265751 C9.38671246,19.031262 9.86718025,19.2129019 10.4062413,19.2714956 C10.9453023,19.3300894 11.4726448,19.242199 11.9882688,19.0078244 C11.6835818,19.5000107 11.5312386,20.0273532 11.5312386,20.5898519 Z M27.9843244,18.9726682 C28.3593237,19.0664182 28.6640101,19.2656361 28.8983847,19.5703231 C29.1327593,19.87501 29.2499464,20.2148526 29.2499464,20.5898519 L29.2499464,22.0312547 C29.2499464,22.2656293 29.1679155,22.4648472 29.0038532,22.6289095 C28.8397909,22.7929718 28.640573,22.8750027 28.4061984,22.8750027 L24.4687078,22.8750027 L24.4687078,20.5898519 C24.4687078,20.0273532 24.3163645,19.4882922 24.0116776,18.9726682 C24.4804263,19.2070429 24.9726126,19.3125114 25.4882366,19.2890737 C26.0507352,19.2656361 26.5663592,19.0781367 27.0351079,18.7265751 L27.9843244,18.9726682 Z" id="users" fill="#FFFFFF"></path>
                    </g>
                </g>
            </g>
        </g>
    </g>
</svg>