<?xml version="1.0" encoding="UTF-8"?>
<svg width="36px" height="36px" viewBox="0 0 36 36" version="1.1" xmlns="http://www.w3.org/2000/svg" xmlns:xlink="http://www.w3.org/1999/xlink">
    <!-- Generator: sketchtool 50.2 (55047) - http://www.bohemiancoding.com/sketch -->
    <title>7A7B9CE9-BDC8-4D65-8E00-7DA811CD5A8A</title>
    <desc>Created with sketchtool.</desc>
    <defs></defs>
    <g id="Components" stroke="none" stroke-width="1" fill="none" fill-rule="evenodd">
        <g id="Cards" transform="translate(-918.000000, -1218.000000)">
            <g id="Profile-suggestions" transform="translate(181.000000, 1205.000000)">
                <g id="Profile-suggestions-3" transform="translate(708.000000, 0.000000)">
                    <g id="Group-4" transform="translate(29.000000, 13.000000)">
                        <circle id="Oval" fill="#B6486D" cx="18" cy="18" r="18"></circle>
                        <path d="M28.1210502,18.4101696 C28.7538612,18.4101696 29.2577661,18.6445442 29.6327654,19.1132929 C29.9608894,19.5351669 30.1249517,20.0625094 30.1249517,20.6953204 C30.1249517,21.3281314 29.9550304,21.8496143 29.6151873,22.2597698 C29.2753442,22.6699252 28.8007359,22.8750027 28.1913626,22.8750027 C27.8632385,22.8750027 27.5585516,22.8046903 27.2773023,22.6640657 C27.11324,22.5937534 26.8905844,22.4472691 26.6093351,22.2246136 C26.3280858,22.0019581 26.1054302,21.8554739 25.9413679,21.7851615 C25.6835562,21.6679745 25.425744,21.6093807 25.1679323,21.6093807 C24.675746,21.6093807 24.3241843,21.8320362 24.1132473,22.2773479 C23.949185,22.6289095 23.8788727,23.1093773 23.9023103,23.7187507 C23.9257479,24.1640623 23.9843412,24.6445295 24.0780911,25.1601535 L24.253872,25.8281206 C23.949185,25.8281206 23.3866864,25.8749954 22.566376,25.9687453 C21.089817,26.1562447 20.0468506,26.2148385 19.4374772,26.1445261 C18.4062298,26.0507762 17.8906059,25.6406213 17.8906059,24.9140603 C17.8906059,24.6562486 17.9491997,24.3984364 18.0663867,24.1406247 C18.1366991,23.9765624 18.2831833,23.7539068 18.5058388,23.4726575 C18.7284943,23.1914082 18.8749785,22.9687526 18.9452909,22.8046903 C19.0859155,22.523441 19.1562279,22.2187541 19.1562279,21.89063 C19.1562279,21.3046937 18.9511504,20.8418046 18.540995,20.5019615 C18.1308395,20.1621183 17.6093566,19.9921971 16.9765456,19.9921971 C16.3437346,19.9921971 15.8163921,20.1621183 15.3945181,20.5019615 C14.9726441,20.8418046 14.7617071,21.3281314 14.7617071,21.9609424 C14.7617071,22.3359416 14.8554571,22.6875033 15.0429564,23.0156273 C15.1367064,23.2265643 15.3242058,23.4960951 15.6054551,23.8242192 C15.7929545,24.0585938 15.9218606,24.2226555 15.9921729,24.3164055 C16.10936,24.5039049 16.1679537,24.6679672 16.1679537,24.8085918 C16.1679537,25.3710905 15.8398297,25.7695269 15.1835811,26.0039015 C14.6445201,26.1914008 13.9179591,26.2734323 13.0038988,26.2499946 C12.3476502,26.226557 11.6328083,26.1445261 10.8593727,26.0039015 L9.875,25.8281206 L9.875,14.1211173 C10.9062474,14.3554919 11.9374953,14.4961166 12.9687426,14.5429913 C15.0312379,14.6133036 16.0624852,14.1328358 16.0624852,13.1015885 C16.0624852,12.9609638 16.0156105,12.7969015 15.9218606,12.6094022 C15.8749859,12.5156522 15.7812359,12.3515905 15.6406113,12.1172158 C15.4062366,11.7890918 15.2538934,11.519561 15.1835811,11.308624 C15.0195188,10.9570623 14.9374879,10.5937821 14.9374879,10.2187829 C14.9374879,9.60940949 15.1718626,9.11722316 15.6406113,8.74222388 C16.0859229,8.41409984 16.6249839,8.25003755 17.2577949,8.25003755 C17.8906059,8.25003755 18.4120888,8.41995884 18.8222443,8.75980196 C19.2323997,9.09964508 19.4374772,9.57425332 19.4374772,10.1836267 C19.4374772,10.4883136 19.3671649,10.7812815 19.2265402,11.0625308 C19.1562279,11.2500302 19.0097437,11.4844048 18.7870881,11.7656542 C18.5644326,12.0469035 18.4179484,12.2578405 18.347636,12.3984652 C18.230449,12.6562769 18.1718552,12.9258077 18.1718552,13.207057 C18.1718552,13.8633056 18.5234169,14.2734605 19.2265402,14.4375228 C19.8124765,14.5781475 20.6093492,14.5547098 21.6171595,14.3672105 C22.3437205,14.2265858 23.1288747,14.0039303 23.9726226,13.6992433 L25.0624638,13.3125255 L24.7812145,14.2968981 C24.5937151,15.0703338 24.4530904,15.7734571 24.3593405,16.4062681 C24.2421534,17.3203284 24.2304343,18.0351703 24.3241843,18.5507942 C24.464809,19.1836052 24.7694959,19.5000107 25.2382446,19.5000107 C25.4023069,19.5000107 25.5663687,19.4648546 25.7304309,19.3945422 L26.2577734,19.0781367 C26.5858975,18.8671997 26.8554283,18.7148565 27.0663653,18.6211066 C27.4179269,18.4804819 27.7694886,18.4101696 28.1210502,18.4101696 Z" id="" fill="#FFFFFF"></path>
                    </g>
                </g>
            </g>
        </g>
    </g>
</svg>